<?xml version="1.0" encoding="UTF-8"?>
<svg id="Capa_2" data-name="Capa 2" xmlns="http://www.w3.org/2000/svg" xmlns:xlink="http://www.w3.org/1999/xlink" viewBox="0 0 57.89 58">
  <defs>
    <style>
      .cls-1 {
        fill: url(#Degradado_sin_nombre_73);
      }
    </style>
    <linearGradient id="Degradado_sin_nombre_73" data-name="Degradado sin nombre 73" x1="6.75" y1="64.75" x2="63.38" y2="8.13" gradientUnits="userSpaceOnUse">
      <stop offset="0" stop-color="#16d9e3"/>
      <stop offset=".52" stop-color="#30c7ec"/>
      <stop offset="1" stop-color="#46aef7"/>
    </linearGradient>
  </defs>
  <g id="Capa_1-2" data-name="Capa 1">
    <path class="cls-1" d="M57.89,5.1c-.29,1.13-.75,2.15-1.7,2.91-1.37,1.1-3.34,1.32-4.87,.47-.38-.21-.6-.18-.9,.13-4.22,4.26-8.45,8.51-12.69,12.75-.3,.3-.31,.5-.12,.86,1.02,1.92,.52,4.19-1.2,5.59-1.58,1.29-3.98,1.29-5.54,0-1.72-1.43-2.2-3.7-1.18-5.6,.14-.25,.27-.45-.02-.73-1.87-1.84-3.71-3.7-5.56-5.56-.04-.04-.09-.07-.17-.12-1.65,.99-3.32,1.01-4.94,.04-3.57,3.58-7.12,7.14-10.7,10.73,1.14,2.66,.7,4.83-1.3,6.18-1.76,1.18-4.11,.96-5.66-.54-1.51-1.47-1.75-3.95-.55-5.71,1.35-1.99,3.45-2.41,6.27-1.24,.1-.1,.22-.2,.32-.3,3.32-3.32,6.63-6.65,9.96-9.96,.29-.29,.33-.5,.13-.86-1.03-1.93-.53-4.19,1.19-5.59,1.62-1.32,3.98-1.28,5.62,.07,1.66,1.37,2.1,3.65,1.07,5.57-.18,.33-.13,.52,.12,.77,1.78,1.76,3.55,3.54,5.31,5.33,.25,.25,.43,.26,.72,.1,1.43-.77,2.87-.75,4.32,0,.15,.08,.46,.07,.57-.04,4.44-4.39,8.86-8.79,13.18-13.09-.24-.87-.55-1.55-.62-2.26-.24-2.44,1.23-4.37,3.64-4.89,.07-.02,.13-.06,.2-.09,.38,0,.75,0,1.13,0,.73,.31,1.51,.55,2.18,.96,1.04,.65,1.47,1.75,1.78,2.89v1.25ZM1.68,28.97c-.01,1.58,1.25,2.86,2.81,2.86,1.55,0,2.85-1.29,2.85-2.84,0-1.53-1.27-2.81-2.8-2.83-1.56-.02-2.85,1.24-2.86,2.81ZM56.21,4.52c0-1.58-1.25-2.85-2.82-2.84-1.56,0-2.85,1.29-2.84,2.84,0,1.52,1.28,2.81,2.81,2.83,1.54,.02,2.85-1.27,2.85-2.83ZM21.4,14.87c1.57,.01,2.85-1.26,2.85-2.81,0-1.56-1.29-2.86-2.83-2.85-1.52,0-2.8,1.27-2.82,2.81-.03,1.56,1.24,2.85,2.8,2.86Zm12.26,12.25c1.56-.02,2.85-1.33,2.82-2.86-.03-1.54-1.3-2.81-2.82-2.81-1.55,0-2.84,1.29-2.83,2.85,0,1.57,1.28,2.84,2.84,2.83Zm14.05,30.88c-.01-.23-.03-.45-.03-.68,0-13.13,0-26.26,0-39.39v-.79h.72c2.94,0,5.88,0,8.81,0,.23,0,.45-.02,.68-.03V58h-10.18Zm1.64-1.71h6.83V18.86h-6.83V56.29Zm-33.41,1.71c-.02-.19-.05-.37-.05-.56,0-7.92,0-15.85,0-23.77,0-.17,0-.34,0-.55h10.23v24.88H15.94Zm1.63-1.71h6.82v-21.5h-6.82v21.5Zm14.2,1.71v-23.65h10.19c.01,.19,.03,.38,.03,.56,0,7.51,0,15.02,0,22.53,0,.19-.03,.37-.05,.56h-10.18Zm8.54-22h-6.82v20.3h6.82v-20.3ZM0,58v-18.77H10.16c.01,.14,.04,.28,.04,.43,0,5.98,0,11.97,0,17.95,0,.13-.02,.26-.03,.39H0Zm8.53-1.71v-15.4H1.71v15.4h6.82Z"/>
  </g>
</svg>