<svg xmlns="http://www.w3.org/2000/svg" viewBox="0 0 359.25 359.42"><g id="Capa_2" data-name="Capa 2"><g id="Capa_1-2" data-name="Capa 1"><path d="M47.92,137.77V8.75c0-7.1,1.66-8.75,8.84-8.75h198c7.11,0,8.76,1.67,8.77,8.82V24c5.45,0,10.76,0,16.07,0,5.88,0,7.88,2,7.88,7.84q0,41.75,0,83.48v4.52c2.43,0,4.64,0,6.84,0,11.83.2,23.77-.44,35.48.86,16.22,1.8,29,17,29.44,33.36a23,23,0,0,1-1.05,6.59q-23,83.58-46,167.16a44.16,44.16,0,0,0-1,5.12c-2.49,16.07-14.44,26.48-30.69,26.49q-59.32.08-118.65,0H32.3C12.56,359.4,0,346.89,0,327.19Q0,248.59,0,170c0-19.71,12.52-32.18,32.3-32.2ZM155.49,347.43H279.38c13,0,20.08-7.17,20.08-20.2q0-63.64,0-127.28c0-13.18-7.12-20.24-20.4-20.24q-72.24,0-144.47.07a11.78,11.78,0,0,1-9.21-3.89q-11.73-12.09-23.85-23.78a8.79,8.79,0,0,0-5.44-2.26c-21.33-.15-42.67-.1-64-.09-13,0-20.11,7.15-20.11,20.16V327.15c0,13.19,7.12,20.28,20.37,20.28ZM60.05,137.77c13.42,0,26.5.08,39.58-.05a10.18,10.18,0,0,1,8,3.26c8,8.2,16.25,16.21,24.27,24.42a7.44,7.44,0,0,0,5.89,2.37q54.83-.09,109.66-.05h3.84V12.19H60.05ZM311.44,282.7l.58,0c.16-.45.35-.89.48-1.35Q329.75,218.85,347,156.37a9.5,9.5,0,0,0,.24-3.68,23.2,23.2,0,0,0-18.8-20.2c-5.22-.91-10.67-.62-16-.68-8.19-.1-16.38,0-24.89,0v36.36c17,5.66,23.95,15.37,23.95,33V282.7ZM263.82,36.08V167.52h11.47V36.08Z"/><path d="M125.78,233.62c0-9.85,0-19.08,0-28.31,0-5.6,2-7.62,7.7-7.63q22.26,0,44.53,0c5.61,0,7.64,2,7.65,7.68,0,9.23,0,18.45,0,28.26h3.69c8.36,0,16.71,0,25.07,0,4.92,0,7.14,2.18,7.16,7q.06,22.83,0,45.65c0,5.05-2.22,7.17-7.4,7.19-9.34,0-18.67,0-28.52,0v15c0,4.61,0,9.23,0,13.84-.06,4.87-2.24,7.05-7.15,7.06q-22.81.06-45.65,0c-4.87,0-7.05-2.22-7.07-7.12,0-9.46,0-18.91,0-28.8H112.9c-5.48,0-11,.06-16.46,0-4.22-.07-6.55-2.3-6.57-6.48q-.09-23.38,0-46.77c0-4.37,2.34-6.57,6.82-6.6,8.36-.07,16.71,0,25.07,0Zm83.56,47.92V245.6H182.51c-7.15,0-8.81-1.67-8.82-8.77v-27H137.75c0,9.67,0,19.12,0,28.58,0,4.89-2.21,7.07-7.07,7.12-4.49.06-9,0-13.47,0H102.11v35.94c9.14,0,18,0,26.83,0,7.14,0,8.81,1.66,8.81,8.77,0,8.94,0,17.88,0,26.94h35.93c0-9.43,0-18.63,0-27.83,0-5.89,2-7.87,7.82-7.88C190.73,281.52,199.93,281.54,209.34,281.54Z"/><path d="M71.9,119.56c0-6.46-.18-12.58,0-18.68a17.85,17.85,0,0,1,17.19-17c2.12-.09,4.38.42,6.33-.16s4.67-1.81,5.5-3.5.32-4.64-.7-6.38c-2.67-4.53-4.54-9.16-4.41-14.44.12-5.47-.28-11.06.68-16.39a23.48,23.48,0,0,1,25.39-19,24,24,0,0,1,21.79,23.17c.11,4,0,8,0,12,.05,5.42-1.76,10.16-4.52,14.78a8,8,0,0,0-.56,6.42c.73,1.6,3.26,2.93,5.22,3.33,3.37.69,7,.12,10.36.87a17,17,0,0,1,13.28,15.33c.4,6.45.09,12.93.09,19.64h-11.9c0-5.41,0-10.74,0-16.06,0-5.61-2.06-7.69-7.69-7.63-4.78,0-9.74.29-13.61-2.87-3.19-2.59-5.73-6-9-9.52H113c-3.77,9.58-11.42,13-21.58,12.43-5.39-.3-7.49,2-7.52,7.37s0,10.69,0,16.28Zm35.92-65.64c0,2.12-.08,4.24,0,6.36a11.94,11.94,0,0,0,23.87.16c.18-4.36.19-8.74,0-13.1a11.94,11.94,0,0,0-23.87.22C107.74,49.68,107.82,51.8,107.82,53.92Z"/><path d="M209.63,24c7.61,0,15.22,0,22.83,0,4.89,0,7.06,2.2,7.1,7.1q.08,10.85,0,21.71c0,4.88-2.22,7.08-7.11,7.1q-22.83.06-45.66,0c-4.89,0-7.06-2.22-7.1-7.11q-.08-10.86,0-21.71c0-4.9,2.2-7.06,7.1-7.09C194.4,23.93,202,24,209.63,24Zm17.73,23.9V36.2H192V47.86Z"/><path d="M179.84,83.6V72.08h59.55V83.6Z"/><path d="M239.37,107.67H179.94V96.06h59.43Z"/><path d="M179.84,131.52V120h59.55v11.52Z"/><path d="M179.84,155.48V144h59.55v11.52Z"/></g></g></svg>