<svg xmlns="http://www.w3.org/2000/svg" viewBox="0 0 359.01 287.55">
<defs>
    <style>
      .cls-1 {
        fill: url(#Degradado_sin_nombre_73);
      }
    </style>
    <linearGradient id="Degradado_sin_nombre_73" data-name="Degradado sin nombre 73" x1="6.75" y1="64.75" x2="63.38" y2="8.13" gradientUnits="userSpaceOnUse">
      <stop offset="0" stop-color="#16d9e3"/>
      <stop offset=".52" stop-color="#30c7ec"/>
      <stop offset="1" stop-color="#46aef7"/>
    </linearGradient>
  </defs>
<g id="Capa_2" data-name="Capa 2"><g id="Capa_1-2" data-name="Capa 1"><path class="cls-1" d="M41.65,24C43.23,7.15,48.43.22,59.41,0A17.68,17.68,0,0,1,74.3,7.24C78.12,12.1,78,17.88,77.91,23.77h35.9c0-2,0-4.09,0-6.15a18,18,0,0,1,35.9,0c.06,2,0,3.94,0,6.13h36c-.55-7.42.2-14.39,6.31-19.48A17.73,17.73,0,0,1,204.11,0c11,.25,16.25,7.15,17.74,23.7h35.73c-.54-7.6.29-14.8,6.85-19.87A17.78,17.78,0,0,1,276.65,0c10.75.61,15.94,7.75,17,23.93h3.9c11,0,21.95,0,32.93,0,10.15,0,16.95,6.41,17.49,16.59q2.79,52.88,5.45,105.77,2.71,52.51,5.53,105c.56,10.34-6.47,18.06-16.85,18.21-2.1,0-4.2,0-6.35,0-.39,2.18-.57,4.15-1.09,6A16.37,16.37,0,0,1,320,287.5c-1.37.08-2.74,0-4.11,0H19.43C6.22,287.54,0,281.3,0,268.06v-225Q0,24,19,24Zm102.17,251.6H316.21c6.09,0,7.22-1.12,7.22-7.14V84.17H143.82Zm-12.32,0V84.17H12.08c0,.93-.1,1.55-.1,2.17q0,91.51,0,183c0,4.77,1.44,6.17,6.28,6.17q55.2,0,110.4,0ZM293.72,36c-1.32,16.47-6.52,23.48-17.4,23.92a17.76,17.76,0,0,1-12.14-4c-6.33-5.07-7.15-12.15-6.57-19.68h-36c0,2.2.06,4.18,0,6.15a17.95,17.95,0,0,1-35.89-.07c-.06-2.06,0-4.12,0-6.11h-36c0,2.16.05,4.13,0,6.1a18,18,0,0,1-35.9.1c-.06-2.07,0-4.14,0-6.1h-36c0,2.29.07,4.29,0,6.28A17.95,17.95,0,0,1,42,42.43c-.07-2.08,0-4.16,0-6.47-8.8,0-17.14-.06-25.47,0-2.58,0-4.37,1.6-4.4,4.19C12,50.62,12,61.07,12,71.7H323.39c0-10.62.07-21.06-.05-31.5A4.08,4.08,0,0,0,319,36C310.62,35.9,302.28,36,293.72,36Zm41.83,221.63c2.18,0,4.14,0,6.1,0,3.93-.11,5.67-1.94,5.46-5.88q-1.46-27.64-3-55.29-2.88-52.49-5.76-105-1.22-21.79-2.47-43.6h-.35ZM53.91,29.91c0,3.87-.08,7.74,0,11.6s2.54,6.36,5.92,6.38,5.93-2.5,6-6.31c.11-7.73.1-15.47,0-23.2,0-3.82-2.55-6.35-5.92-6.37s-5.88,2.5-6,6.3S53.91,26.05,53.91,29.91Zm83.84.33c0-3.87.07-7.73,0-11.6-.09-4.06-2.55-6.68-6.06-6.63s-5.83,2.58-5.87,6.42c-.09,7.73-.1,15.47,0,23.2.05,3.78,2.65,6.31,6,6.26s5.78-2.59,5.88-6.42S137.75,34,137.75,30.24Zm71.87-.11c0-3.87.07-7.74,0-11.6s-2.43-6.42-5.78-6.52c-3.5-.11-6.1,2.52-6.14,6.53q-.12,11.42,0,22.83c0,3.86,2.42,6.41,5.78,6.52s6-2.53,6.14-6.54C209.69,37.61,209.62,33.87,209.62,30.13ZM281.49,30c0-3.86.09-7.73,0-11.6s-2.57-6.34-6-6.34-5.9,2.52-5.95,6.33q-.15,11.6,0,23.2c.05,3.81,2.57,6.35,5.94,6.35s5.86-2.52,6-6.34S281.49,33.82,281.49,30Z"/><path class="cls-1" d="M185.79,143.76a18,18,0,1,1,17.84-17.89A18,18,0,0,1,185.79,143.76Zm-.23-23.92a6,6,0,1,0,6.07,5.85A6,6,0,0,0,185.56,119.84Z"/><path class="cls-1" d="M251.54,125.71a18,18,0,1,1-18.26-17.87A18,18,0,0,1,251.54,125.71Zm-17.78-5.87a6,6,0,1,0,5.78,6.13A6,6,0,0,0,233.76,119.84Z"/><path class="cls-1" d="M281.56,143.76a18,18,0,1,1,17.9-17.83A18,18,0,0,1,281.56,143.76Zm.09-23.92a6,6,0,1,0,5.81,6.1A6,6,0,0,0,281.65,119.84Z"/><path class="cls-1" d="M203.63,173.65a18,18,0,1,1-18.24-17.89A18,18,0,0,1,203.63,173.65Zm-17.94,6a6,6,0,1,0-6-5.94A6,6,0,0,0,185.69,179.68Z"/><path class="cls-1" d="M251.54,173.71a18,18,0,1,1-18.17-18A18,18,0,0,1,251.54,173.71Zm-17.94,6a6,6,0,1,0-6-5.94A6,6,0,0,0,233.6,179.68Z"/><path class="cls-1" d="M281.52,191.68a18,18,0,1,1,17.94-17.79A18,18,0,0,1,281.52,191.68Zm5.94-18.09a6,6,0,1,0-5.84,6.09A6,6,0,0,0,287.46,173.59Z"/><path class="cls-1" d="M203.63,221.5a18,18,0,1,1-17.94-17.82A18,18,0,0,1,203.63,221.5Zm-17.86-5.82a6,6,0,1,0,5.86,6.06A6,6,0,0,0,185.77,215.68Z"/><path class="cls-1" d="M233.49,239.61a18,18,0,1,1,18-17.68A18,18,0,0,1,233.49,239.61Zm.19-23.93a6,6,0,1,0,5.86,6.06A6,6,0,0,0,233.68,215.68Z"/><path class="cls-1" d="M59.89,215.28c-8.41-1.57-15.72-4.77-21.88-10.36-8.86-8-13.68-18-14-30S23.94,151,24,139c0-5.09,2.19-7.2,7.35-7.23,5.35,0,10.7,0,16.6,0,0-5.48,0-10.78,0-16.09,0-5.87,2-7.85,7.85-7.87,7,0,14,0,20.95,0,4.89,0,7.07,2.22,7.12,7.09,0,5.46,0,10.93,0,16.86H99.68c6.15,0,8.12,1.93,8.12,8q0,16.08,0,32.18c0,22.13-13,38.27-34.59,43a10.48,10.48,0,0,0-1.33.49c0,4.9-.21,9.88.15,14.82.08,1.18,1.85,2.8,3.16,3.2,1.83.56,4,0,5.94.19,2.46.19,3.9-.45,5.22-2.9a17.31,17.31,0,0,1,19.74-8.51,17.9,17.9,0,0,1,.92,34.54,17.61,17.61,0,0,1-20.59-8.14c-1.35-2.49-2.79-3.43-5.47-3.08a35.79,35.79,0,0,1-4.86,0c-9.93-.06-16.14-6.21-16.2-16.06C59.87,224.83,59.89,220.11,59.89,215.28Zm0-95.3c0,5.67,0,10.9,0,16.14,0,5.59-2.08,7.62-7.71,7.64-5.32,0-10.65,0-16,0v12c5.49,0,10.72,0,15.95,0,5.64,0,7.7,2.05,7.73,7.62,0,5.33,0,10.66,0,16.1H71.55a4.44,4.44,0,0,0,.27-.93q0-7.29.05-14.59c0-6.35,1.88-8.2,8.28-8.21H95.63v-12H79.8c-5.9,0-7.9-2-7.92-7.81,0-5.31,0-10.63,0-16Zm24,47.91c0,5.78,0,11.14,0,16.5,0,5.12-2.18,7.26-7.3,7.29-7,0-14,0-21,0-5.62,0-7.64-2.06-7.67-7.68,0-5.33,0-10.65,0-16H36.08c-1.13,13.83,3.06,25,15.35,31.83,10.89,6,21.91,5.31,32.05-2s13.31-17.75,12.14-29.93Zm18.26,65.77a6,6,0,1,0,5.67,6.25A6,6,0,0,0,102.11,233.66Z"/></g></g></svg>