<?xml version="1.0" encoding="UTF-8"?>
<svg id="Capa_2" data-name="Capa 2" xmlns="http://www.w3.org/2000/svg" xmlns:xlink="http://www.w3.org/1999/xlink" viewBox="0 0 81.94 40.97">
  <defs>
    <style>
      .cls-1 {
        fill: url(#Degradado_sin_nombre_73);
      }
    </style>
    <linearGradient id="Degradado_sin_nombre_73" data-name="Degradado sin nombre 73" x1="0" y1="20.49" x2="81.94" y2="20.49" gradientUnits="userSpaceOnUse">
      <stop offset="0" stop-color="#16d9e3"/>
      <stop offset=".52" stop-color="#30c7ec"/>
      <stop offset="1" stop-color="#46aef7"/>
    </linearGradient>
  </defs>
  <g id="Capa_1-2" data-name="Capa 1">
    <path class="cls-1" d="M61.45,40.97h-3.41c0-5.3,.2-6.06-3-6.8-4.91-1.13-9.55-2.2-11.24-5.9-.61-1.35-1.03-3.58,.53-6.51,3.49-6.59,4.36-12.23,2.4-15.49-2.29-3.81-9.24-3.82-11.56,.06-1.97,3.3-1.08,8.92,2.43,15.4,1.59,2.92,1.19,5.16,.57,6.51-1.67,3.72-6.27,4.78-11.14,5.9-3.35,.78-3.14,1.49-3.14,6.84h-3.4v-2.13c0-4.3,.33-6.78,5.41-7.95,5.74-1.33,11.42-2.51,8.69-7.54C26.52,8.45,32.29,0,40.96,0s14.43,8.14,6.37,23.35c-2.65,5,2.81,6.19,8.69,7.54,5.09,1.17,5.43,3.66,5.43,7.97v2.11Zm16.42-7.56c-4.4-1.02-8.5-1.91-6.51-5.66,6.04-11.41,1.6-17.51-4.78-17.51-4.32,0-7.68,2.79-7.68,7.94,0,4.33,1.96,7.43,3.09,9.99h3.58c-.58-2.56-5.01-8.75-2.62-12.76,1.41-2.36,5.82-2.37,7.22-.04,1.3,2.15,.62,6.19-1.82,10.79-1.32,2.5-.96,4.44-.41,5.63,1.04,2.27,3.34,3.37,5.93,4.12,5.15,1.51,4.67,.14,4.67,5.05h3.4v-1.58c0-3.23-.25-5.09-4.07-5.97ZM0,40.97H3.41c0-4.91-.47-3.55,4.67-5.05,2.6-.75,4.89-1.85,5.93-4.12,.54-1.19,.91-3.12-.41-5.63-2.44-4.61-3.12-8.64-1.82-10.79,1.4-2.33,5.81-2.33,7.22,.04,2.39,4.01-2.03,10.19-2.62,12.76h3.58c1.13-2.56,3.09-5.65,3.09-9.99,0-5.15-3.35-7.94-7.67-7.94-6.38,0-10.82,6.1-4.78,17.51,1.98,3.75-2.11,4.64-6.51,5.66-3.82,.88-4.08,2.75-4.08,5.98,0,0,0,1.58,0,1.58Z"/>
  </g>
</svg>