<?xml version="1.0" encoding="UTF-8"?>
<svg id="Capa_2" data-name="Capa 2" xmlns="http://www.w3.org/2000/svg" xmlns:xlink="http://www.w3.org/1999/xlink" viewBox="0 0 58.21 58.21">
  <defs>
    <style>
      .cls-1 {
        fill: url(#Degradado_sin_nombre_74);
        fill-rule: evenodd;
      }
    </style>
    <radialGradient id="Degradado_sin_nombre_74" data-name="Degradado sin nombre 74" cx="29.11" cy="29.11" fx="29.11" fy="29.11" r="29.11" gradientUnits="userSpaceOnUse">
      <stop offset="0" stop-color="#16d9e3"/>
      <stop offset=".52" stop-color="#30c7ec"/>
      <stop offset="1" stop-color="#46aef7"/>
    </radialGradient>
  </defs>
  <g id="Capa_1-2" data-name="Capa 1">
    <path class="cls-1" d="M29.11,0c16.06,0,29.11,13.04,29.11,29.11s-13.04,29.11-29.11,29.11S0,45.17,0,29.11,13.04,0,29.11,0Zm19.71,47.08c-.68-.97-1.87-1.59-3.94-2.06-9.33-2.2-9.94-3.64-10.56-4.99-.63-1.37-.46-2.98,.5-4.8,4.19-7.9,5.07-14.61,2.49-18.89-1.63-2.71-4.55-4.21-8.21-4.21s-6.63,1.52-8.27,4.28c-2.59,4.34-1.68,11.02,2.54,18.81,.98,1.8,1.15,3.41,.53,4.79-.64,1.42-1.48,2.89-10.59,5.01-2.07,.48-3.26,1.09-3.94,2.06,4.88,5.35,11.91,8.71,19.71,8.71s14.83-3.36,19.71-8.71Zm1.58-1.9c3.38-4.47,5.39-10.04,5.39-16.08,0-14.73-11.96-26.68-26.68-26.68S2.43,14.38,2.43,29.11c0,6.03,2.01,11.6,5.39,16.07,.99-1.1,2.54-1.96,4.97-2.52,4.91-1.12,8.19-2.03,8.92-3.64,.3-.66,.15-1.52-.46-2.64-4.65-8.57-5.54-16.11-2.5-21.21,2.07-3.47,5.84-5.46,10.35-5.46s8.22,1.96,10.28,5.38c3.03,5.04,2.17,12.6-2.43,21.28-.59,1.12-.74,1.99-.43,2.65,.74,1.62,3.99,2.52,8.89,3.64,2.43,.56,3.98,1.43,4.97,2.53Z"/>
  </g>
</svg>